<svg width="64" height="64" viewBox="0 0 64 64" fill="none" xmlns="http://www.w3.org/2000/svg">
<rect width="64" height="64" fill="#1E1E2E"/>
<path d="M18.6 38.02L9.4 33.86V31L18.6 26.82V29.54L13.08 31.96C12.8133 32.08 12.5333 32.18 12.24 32.26C11.9467 32.34 11.7133 32.3933 11.54 32.42C11.7133 32.4467 11.9467 32.5 12.24 32.58C12.5333 32.6467 12.8133 32.74 13.08 32.86L18.6 35.28V38.02Z" fill="#9399B2"/>
<path d="M20.9922 41.2L27.8922 22.4H30.9922L24.0922 41.2H20.9922Z" fill="#A6ADC8"/>
<path d="M33.3844 39L33.9644 35.6H32.3844V33.6H34.3044L34.9644 29.8H32.9844V27.8H35.3044L35.8844 24.4H37.9844L37.4044 27.8H39.9044L40.4844 24.4H42.5844L42.0044 27.8H43.5844V29.8H41.6644L41.0044 33.6H42.9844V35.6H40.6644L40.0844 39H37.9844L38.5644 35.6H36.0644L35.4844 39H33.3844ZM36.4044 33.6H38.9044L39.5644 29.8H37.0644L36.4044 33.6ZM45.3766 38.02V35.3L50.8966 32.88C51.1632 32.76 51.4432 32.66 51.7366 32.58C52.0299 32.5 52.2632 32.4467 52.4366 32.42C52.2632 32.3933 52.0299 32.3467 51.7366 32.28C51.4432 32.2 51.1632 32.1 50.8966 31.98L45.3766 29.56V26.82L54.5766 30.98V33.84L45.3766 38.02Z" fill="#A6E3A1"/>
</svg>
